<?xml version="1.0" encoding="UTF-8" standalone="no"?>
<!DOCTYPE svg PUBLIC "-//W3C//DTD SVG 1.1//EN"
 "http://www.w3.org/Graphics/SVG/1.1/DTD/svg11.dtd">
<!-- Generated by graphviz version 14.0.5 (20251129.0259)
 -->
<!-- Title: packages_blog_app Pages: 1 -->
<svg width="579pt" height="260pt"
 viewBox="0.00 0.00 579.00 260.00" xmlns="http://www.w3.org/2000/svg" xmlns:xlink="http://www.w3.org/1999/xlink">
<g id="graph0" class="graph" transform="scale(1 1) rotate(0) translate(4 256)">
<title>packages_blog_app</title>
<polygon fill="white" stroke="none" points="-4,4 -4,-256 574.88,-256 574.88,4 -4,4"/>
<!-- app -->
<g id="node1" class="node">
<title>app</title>
<polygon fill="none" stroke="black" points="277.5,-36 223.5,-36 223.5,0 277.5,0 277.5,-36"/>
<text xml:space="preserve" text-anchor="start" x="240.75" y="-12.95" font-family="Times,serif" font-size="14.00">app</text>
</g>
<!-- config -->
<g id="node2" class="node">
<title>config</title>
<polygon fill="none" stroke="black" points="222.5,-108 168.5,-108 168.5,-72 222.5,-72 222.5,-108"/>
<text xml:space="preserve" text-anchor="start" x="178.25" y="-84.95" font-family="Times,serif" font-size="14.00">config</text>
</g>
<!-- app&#45;&gt;config -->
<g id="edge1" class="edge">
<title>app&#45;&gt;config</title>
<path fill="none" stroke="black" d="M236.9,-36.3C230.51,-44.44 222.76,-54.31 215.69,-63.3"/>
<polygon fill="black" stroke="black" points="209.69,-70.94 212.33,-60.29 212.03,-67.96 215.87,-63.07 215.87,-63.07 215.87,-63.07 212.03,-67.96 219.41,-65.85 209.69,-70.94"/>
</g>
<!-- controllers.blog_controller -->
<g id="node4" class="node">
<title>controllers.blog_controller</title>
<polygon fill="none" stroke="black" points="438.88,-108 278.12,-108 278.12,-72 438.88,-72 438.88,-108"/>
<text xml:space="preserve" text-anchor="start" x="286.12" y="-84.95" font-family="Times,serif" font-size="14.00">controllers.blog_controller</text>
</g>
<!-- app&#45;&gt;controllers.blog_controller -->
<g id="edge2" class="edge">
<title>app&#45;&gt;controllers.blog_controller</title>
<path fill="none" stroke="black" d="M277.47,-36.48C291.11,-45.32 307.84,-56.16 322.55,-65.7"/>
<polygon fill="black" stroke="black" points="330.85,-71.08 320.01,-69.41 327.67,-69.02 322.46,-65.64 322.46,-65.64 322.46,-65.64 327.67,-69.02 324.9,-61.86 330.85,-71.08"/>
</g>
<!-- monitoring.metrics -->
<g id="node8" class="node">
<title>monitoring.metrics</title>
<polygon fill="none" stroke="black" points="501,-252 380,-252 380,-216 501,-216 501,-252"/>
<text xml:space="preserve" text-anchor="start" x="388" y="-228.95" font-family="Times,serif" font-size="14.00">monitoring.metrics</text>
</g>
<!-- app&#45;&gt;monitoring.metrics -->
<g id="edge3" class="edge">
<title>app&#45;&gt;monitoring.metrics</title>
<path fill="none" stroke="black" d="M277.96,-26.57C288.72,-29.53 301.19,-32.94 312.5,-36 372.44,-52.21 409.67,-22.76 447.5,-72 476.95,-110.34 463.46,-170.27 451.57,-205.18"/>
<polygon fill="black" stroke="black" points="448.24,-214.43 447.39,-203.5 449.52,-210.88 451.63,-205.03 451.63,-205.03 451.63,-205.03 449.52,-210.88 455.86,-206.55 448.24,-214.43"/>
</g>
<!-- repositories.blog_repository -->
<g id="node10" class="node">
<title>repositories.blog_repository</title>
<polygon fill="none" stroke="black" points="334.62,-180 166.38,-180 166.38,-144 334.62,-144 334.62,-180"/>
<text xml:space="preserve" text-anchor="start" x="174.38" y="-156.95" font-family="Times,serif" font-size="14.00">repositories.blog_repository</text>
</g>
<!-- app&#45;&gt;repositories.blog_repository -->
<g id="edge4" class="edge">
<title>app&#45;&gt;repositories.blog_repository</title>
<path fill="none" stroke="black" d="M250.5,-36.41C250.5,-60.5 250.5,-104.25 250.5,-132.97"/>
<polygon fill="black" stroke="black" points="250.5,-142.67 246,-132.67 250.5,-138.89 250.5,-132.67 250.5,-132.67 250.5,-132.67 250.5,-138.89 255,-132.67 250.5,-142.67"/>
</g>
<!-- repositories.database -->
<g id="node11" class="node">
<title>repositories.database</title>
<polygon fill="none" stroke="black" points="150.12,-108 20.88,-108 20.88,-72 150.12,-72 150.12,-108"/>
<text xml:space="preserve" text-anchor="start" x="28.88" y="-84.95" font-family="Times,serif" font-size="14.00">repositories.database</text>
</g>
<!-- app&#45;&gt;repositories.database -->
<g id="edge5" class="edge">
<title>app&#45;&gt;repositories.database</title>
<path fill="none" stroke="black" d="M223.25,-30.56C199.86,-40.48 165.49,-55.07 136.93,-67.18"/>
<polygon fill="black" stroke="black" points="127.83,-71.04 135.28,-62.99 131.31,-69.57 137.04,-67.14 137.04,-67.14 137.04,-67.14 131.31,-69.57 138.79,-71.28 127.83,-71.04"/>
</g>
<!-- controllers -->
<g id="node3" class="node">
<title>controllers</title>
<polygon fill="none" stroke="black" points="395.38,-36 321.62,-36 321.62,0 395.38,0 395.38,-36"/>
<text xml:space="preserve" text-anchor="start" x="329.62" y="-12.95" font-family="Times,serif" font-size="14.00">controllers</text>
</g>
<!-- controllers&#45;&gt;controllers.blog_controller -->
<g id="edge6" class="edge">
<title>controllers&#45;&gt;controllers.blog_controller</title>
<path fill="none" stroke="black" d="M358.5,-36.3C358.5,-43.68 358.5,-52.48 358.5,-60.75"/>
<polygon fill="black" stroke="black" points="358.5,-70.68 354,-60.68 358.5,-66.9 358.5,-60.68 358.5,-60.68 358.5,-60.68 358.5,-66.9 363,-60.68 358.5,-70.68"/>
</g>
<!-- models.blog_post -->
<g id="node6" class="node">
<title>models.blog_post</title>
<polygon fill="none" stroke="black" points="306.88,-252 194.12,-252 194.12,-216 306.88,-216 306.88,-252"/>
<text xml:space="preserve" text-anchor="start" x="202.12" y="-228.95" font-family="Times,serif" font-size="14.00">models.blog_post</text>
</g>
<!-- controllers.blog_controller&#45;&gt;models.blog_post -->
<g id="edge7" class="edge">
<title>controllers.blog_controller&#45;&gt;models.blog_post</title>
<path fill="none" stroke="black" d="M359.77,-108.36C360.28,-127.59 358.4,-158.68 343.5,-180 334.68,-192.63 321.82,-202.63 308.46,-210.39"/>
<polygon fill="black" stroke="black" points="299.77,-215.07 306.44,-206.37 303.1,-213.28 308.58,-210.33 308.58,-210.33 308.58,-210.33 303.1,-213.28 310.71,-214.29 299.77,-215.07"/>
</g>
<!-- controllers.blog_controller&#45;&gt;monitoring.metrics -->
<g id="edge8" class="edge">
<title>controllers.blog_controller&#45;&gt;monitoring.metrics</title>
<path fill="none" stroke="black" d="M368.55,-108.41C382.71,-132.92 408.63,-177.81 425.19,-206.48"/>
<polygon fill="black" stroke="black" points="430.01,-214.83 421.11,-208.42 428.12,-211.56 425.01,-206.17 425.01,-206.17 425.01,-206.17 428.12,-211.56 428.91,-203.92 430.01,-214.83"/>
</g>
<!-- controllers.blog_controller&#45;&gt;repositories.blog_repository -->
<g id="edge9" class="edge">
<title>controllers.blog_controller&#45;&gt;repositories.blog_repository</title>
<path fill="none" stroke="black" d="M331.53,-108.48C317.89,-117.32 301.16,-128.16 286.45,-137.7"/>
<polygon fill="black" stroke="black" points="278.15,-143.08 284.1,-133.86 281.33,-141.02 286.54,-137.64 286.54,-137.64 286.54,-137.64 281.33,-141.02 288.99,-141.41 278.15,-143.08"/>
</g>
<!-- models -->
<g id="node5" class="node">
<title>models</title>
<polygon fill="none" stroke="black" points="148.38,-180 92.62,-180 92.62,-144 148.38,-144 148.38,-180"/>
<text xml:space="preserve" text-anchor="start" x="100.62" y="-156.95" font-family="Times,serif" font-size="14.00">models</text>
</g>
<!-- models&#45;&gt;models.blog_post -->
<g id="edge10" class="edge">
<title>models&#45;&gt;models.blog_post</title>
<path fill="none" stroke="black" d="M148.71,-178.19C166.21,-187.61 189.02,-199.9 208.61,-210.45"/>
<polygon fill="black" stroke="black" points="217.15,-215.04 206.22,-214.27 213.82,-213.25 208.35,-210.3 208.35,-210.3 208.35,-210.3 213.82,-213.25 210.48,-206.34 217.15,-215.04"/>
</g>
<!-- monitoring -->
<g id="node7" class="node">
<title>monitoring</title>
<polygon fill="none" stroke="black" points="570.88,-180 494.12,-180 494.12,-144 570.88,-144 570.88,-180"/>
<text xml:space="preserve" text-anchor="start" x="502.12" y="-156.95" font-family="Times,serif" font-size="14.00">monitoring</text>
</g>
<!-- monitoring&#45;&gt;monitoring.metrics -->
<g id="edge11" class="edge">
<title>monitoring&#45;&gt;monitoring.metrics</title>
<path fill="none" stroke="black" d="M509.76,-180.3C498.37,-188.97 484.4,-199.6 471.99,-209.04"/>
<polygon fill="black" stroke="black" points="464.27,-214.92 469.5,-205.28 467.28,-212.63 472.23,-208.86 472.23,-208.86 472.23,-208.86 467.28,-212.63 474.95,-212.44 464.27,-214.92"/>
</g>
<!-- repositories -->
<g id="node9" class="node">
<title>repositories</title>
<polygon fill="none" stroke="black" points="79,-36 0,-36 0,0 79,0 79,-36"/>
<text xml:space="preserve" text-anchor="start" x="8" y="-12.95" font-family="Times,serif" font-size="14.00">repositories</text>
</g>
<!-- repositories&#45;&gt;repositories.blog_repository -->
<g id="edge12" class="edge">
<title>repositories&#45;&gt;repositories.blog_repository</title>
<path fill="none" stroke="black" d="M25.31,-36.49C11.44,-55.83 -5.33,-87.03 11.5,-108 16.27,-113.95 90.8,-129.88 155.38,-142.74"/>
<polygon fill="black" stroke="black" points="164.86,-144.62 154.18,-147.09 161.15,-143.88 155.05,-142.67 155.05,-142.67 155.05,-142.67 161.15,-143.88 155.93,-138.26 164.86,-144.62"/>
</g>
<!-- repositories&#45;&gt;repositories.database -->
<g id="edge13" class="edge">
<title>repositories&#45;&gt;repositories.database</title>
<path fill="none" stroke="black" d="M50.87,-36.3C56.11,-44.27 62.43,-53.9 68.24,-62.74"/>
<polygon fill="black" stroke="black" points="73.59,-70.88 64.34,-64.99 71.51,-67.72 68.1,-62.52 68.1,-62.52 68.1,-62.52 71.51,-67.72 71.86,-60.05 73.59,-70.88"/>
</g>
<!-- repositories.blog_repository&#45;&gt;models.blog_post -->
<g id="edge14" class="edge">
<title>repositories.blog_repository&#45;&gt;models.blog_post</title>
<path fill="none" stroke="black" d="M250.5,-180.3C250.5,-187.68 250.5,-196.48 250.5,-204.75"/>
<polygon fill="black" stroke="black" points="250.5,-214.68 246,-204.68 250.5,-210.9 250.5,-204.68 250.5,-204.68 250.5,-204.68 250.5,-210.9 255,-204.68 250.5,-214.68"/>
</g>
<!-- repositories.blog_repository&#45;&gt;monitoring.metrics -->
<g id="edge15" class="edge">
<title>repositories.blog_repository&#45;&gt;monitoring.metrics</title>
<path fill="none" stroke="black" d="M297.95,-180.48C323.78,-190 355.93,-201.84 383.15,-211.87"/>
<polygon fill="black" stroke="black" points="392.18,-215.2 381.24,-215.96 388.63,-213.89 382.79,-211.74 382.79,-211.74 382.79,-211.74 388.63,-213.89 384.35,-207.52 392.18,-215.2"/>
</g>
</g>
</svg>
