<?xml version="1.0" encoding="UTF-8" standalone="no"?>
<!DOCTYPE svg PUBLIC "-//W3C//DTD SVG 1.1//EN"
 "http://www.w3.org/Graphics/SVG/1.1/DTD/svg11.dtd">
<!-- Generated by graphviz version 2.43.0 (0)
 -->
<!-- Title: classes_blog_app Pages: 1 -->
<svg width="1003pt" height="605pt"
 viewBox="0.00 0.00 1002.50 605.00" xmlns="http://www.w3.org/2000/svg" xmlns:xlink="http://www.w3.org/1999/xlink">
<g id="graph0" class="graph" transform="scale(1 1) rotate(0) translate(4 601)">
<title>classes_blog_app</title>
<polygon fill="white" stroke="transparent" points="-4,4 -4,-601 998.5,-601 998.5,4 -4,4"/>
<!-- app.BlogApplication -->
<g id="node1" class="node">
<title>app.BlogApplication</title>
<polygon fill="none" stroke="black" points="334.5,-452.5 334.5,-596.5 547.5,-596.5 547.5,-452.5 334.5,-452.5"/>
<text text-anchor="start" x="384.5" y="-581.3" font-family="Times,serif" font-size="14.00">BlogApplication</text>
<polyline fill="none" stroke="black" points="334.5,-573.5 547.5,-573.5 "/>
<text text-anchor="start" x="342.5" y="-558.3" font-family="Times,serif" font-size="14.00">app</text>
<text text-anchor="start" x="342.5" y="-543.3" font-family="Times,serif" font-size="14.00">blog_controller : NoneType</text>
<text text-anchor="start" x="342.5" y="-528.3" font-family="Times,serif" font-size="14.00">blog_repository : NoneType</text>
<text text-anchor="start" x="342.5" y="-513.3" font-family="Times,serif" font-size="14.00">config</text>
<text text-anchor="start" x="342.5" y="-498.3" font-family="Times,serif" font-size="14.00">db_connection : NoneType</text>
<polyline fill="none" stroke="black" points="334.5,-490.5 547.5,-490.5 "/>
<text text-anchor="start" x="383.5" y="-475.3" font-family="Times,serif" font-size="14.00">close()</text>
<text text-anchor="start" x="383.5" y="-460.3" font-family="Times,serif" font-size="14.00">get_app(): Flask</text>
</g>
<!-- controllers.blog_controller.BlogController -->
<g id="node2" class="node">
<title>controllers.blog_controller.BlogController</title>
<polygon fill="none" stroke="black" points="229,-256.5 229,-370.5 407,-370.5 407,-256.5 229,-256.5"/>
<text text-anchor="start" x="265" y="-355.3" font-family="Times,serif" font-size="14.00">BlogController</text>
<polyline fill="none" stroke="black" points="229,-347.5 407,-347.5 "/>
<text text-anchor="start" x="281" y="-332.3" font-family="Times,serif" font-size="14.00">blueprint</text>
<text text-anchor="start" x="281" y="-317.3" font-family="Times,serif" font-size="14.00">repository</text>
<polyline fill="none" stroke="black" points="229,-309.5 407,-309.5 "/>
<text text-anchor="start" x="237" y="-294.3" font-family="Times,serif" font-size="14.00">create_post()</text>
<text text-anchor="start" x="237" y="-279.3" font-family="Times,serif" font-size="14.00">index()</text>
<text text-anchor="start" x="237" y="-264.3" font-family="Times,serif" font-size="14.00">view_post(post_id: str)</text>
</g>
<!-- controllers.blog_controller.BlogController&#45;&gt;app.BlogApplication -->
<g id="edge2" class="edge">
<title>controllers.blog_controller.BlogController&#45;&gt;app.BlogApplication</title>
<path fill="none" stroke="black" d="M336.98,-370.61C344.97,-391.2 355.18,-414.29 367,-434 368.67,-436.78 370.42,-439.57 372.23,-442.34"/>
<polygon fill="black" stroke="black" points="372.3,-442.44 378.98,-445.14 379.06,-452.35 372.38,-449.65 372.3,-442.44"/>
<text text-anchor="middle" x="421" y="-422.8" font-family="Times,serif" font-size="14.00" fill="green">blog_controller</text>
</g>
<!-- models.blog_post.BlogPost -->
<g id="node3" class="node">
<title>models.blog_post.BlogPost</title>
<polygon fill="none" stroke="black" points="635.5,-0.5 635.5,-174.5 910.5,-174.5 910.5,-0.5 635.5,-0.5"/>
<text text-anchor="start" x="741" y="-159.3" font-family="Times,serif" font-size="14.00">BlogPost</text>
<polyline fill="none" stroke="black" points="635.5,-151.5 910.5,-151.5 "/>
<text text-anchor="start" x="694.5" y="-136.3" font-family="Times,serif" font-size="14.00">author : str</text>
<text text-anchor="start" x="694.5" y="-121.3" font-family="Times,serif" font-size="14.00">content : str</text>
<text text-anchor="start" x="694.5" y="-106.3" font-family="Times,serif" font-size="14.00">created_at : datetime</text>
<text text-anchor="start" x="694.5" y="-91.3" font-family="Times,serif" font-size="14.00">id : Optional[str]</text>
<text text-anchor="start" x="694.5" y="-76.3" font-family="Times,serif" font-size="14.00">title : str</text>
<text text-anchor="start" x="694.5" y="-61.3" font-family="Times,serif" font-size="14.00">updated_at : datetime</text>
<polyline fill="none" stroke="black" points="635.5,-53.5 910.5,-53.5 "/>
<text text-anchor="start" x="643.5" y="-38.3" font-family="Times,serif" font-size="14.00">from_dict(post_dict: dict): &#39;BlogPost&#39;</text>
<text text-anchor="start" x="643.5" y="-23.3" font-family="Times,serif" font-size="14.00">to_dict(): dict</text>
<text text-anchor="start" x="643.5" y="-8.3" font-family="Times,serif" font-size="14.00">validate(): Tuple[bool, Optional[str]]</text>
</g>
<!-- repositories.blog_repository.BlogRepository -->
<g id="node4" class="node">
<title>repositories.blog_repository.BlogRepository</title>
<polygon fill="none" stroke="black" points="0,-15.5 0,-159.5 344,-159.5 344,-15.5 0,-15.5"/>
<text text-anchor="start" x="117" y="-144.3" font-family="Times,serif" font-size="14.00">BlogRepository</text>
<polyline fill="none" stroke="black" points="0,-136.5 344,-136.5 "/>
<text text-anchor="start" x="137.5" y="-121.3" font-family="Times,serif" font-size="14.00">collection</text>
<polyline fill="none" stroke="black" points="0,-113.5 344,-113.5 "/>
<text text-anchor="start" x="8" y="-98.3" font-family="Times,serif" font-size="14.00">count(): int</text>
<text text-anchor="start" x="8" y="-83.3" font-family="Times,serif" font-size="14.00">create(blog_post: BlogPost): str</text>
<text text-anchor="start" x="8" y="-68.3" font-family="Times,serif" font-size="14.00">delete(post_id: str): bool</text>
<text text-anchor="start" x="8" y="-53.3" font-family="Times,serif" font-size="14.00">get_all(sort_by: str, order: int): List[BlogPost]</text>
<text text-anchor="start" x="8" y="-38.3" font-family="Times,serif" font-size="14.00">get_by_id(post_id: str): Optional[BlogPost]</text>
<text text-anchor="start" x="8" y="-23.3" font-family="Times,serif" font-size="14.00">update(post_id: str, blog_post: BlogPost): bool</text>
</g>
<!-- repositories.blog_repository.BlogRepository&#45;&gt;app.BlogApplication -->
<g id="edge3" class="edge">
<title>repositories.blog_repository.BlogRepository&#45;&gt;app.BlogApplication</title>
<path fill="none" stroke="black" d="M128.87,-159.6C93.93,-227.34 58.01,-329.35 108,-401 156.09,-469.94 247.52,-500.19 322.43,-513.41"/>
<polygon fill="black" stroke="black" points="322.46,-513.41 329.04,-510.45 334.3,-515.39 327.72,-518.34 322.46,-513.41"/>
<text text-anchor="middle" x="164" y="-309.8" font-family="Times,serif" font-size="14.00" fill="green">blog_repository</text>
</g>
<!-- repositories.blog_repository.BlogRepository&#45;&gt;controllers.blog_controller.BlogController -->
<g id="edge6" class="edge">
<title>repositories.blog_repository.BlogRepository&#45;&gt;controllers.blog_controller.BlogController</title>
<path fill="none" stroke="black" d="M218.4,-159.68C236.46,-187.4 257.05,-218.98 274.79,-246.21"/>
<polygon fill="none" stroke="black" points="274.89,-246.36 281.52,-249.2 281.45,-256.42 274.82,-253.57 274.89,-246.36"/>
<text text-anchor="middle" x="287" y="-196.8" font-family="Times,serif" font-size="14.00" fill="green">repository</text>
</g>
<!-- config.Config -->
<g id="node5" class="node">
<title>config.Config</title>
<polygon fill="none" stroke="black" points="425,-226.5 425,-400.5 627,-400.5 627,-226.5 425,-226.5"/>
<text text-anchor="start" x="503" y="-385.3" font-family="Times,serif" font-size="14.00">Config</text>
<polyline fill="none" stroke="black" points="425,-377.5 627,-377.5 "/>
<text text-anchor="start" x="433" y="-362.3" font-family="Times,serif" font-size="14.00">COLLECTION_NAME : str</text>
<text text-anchor="start" x="433" y="-347.3" font-family="Times,serif" font-size="14.00">DATABASE_NAME : str</text>
<text text-anchor="start" x="433" y="-332.3" font-family="Times,serif" font-size="14.00">FLASK_DEBUG</text>
<text text-anchor="start" x="433" y="-317.3" font-family="Times,serif" font-size="14.00">FLASK_ENV : str</text>
<text text-anchor="start" x="433" y="-302.3" font-family="Times,serif" font-size="14.00">MONGO_URI : str</text>
<text text-anchor="start" x="433" y="-287.3" font-family="Times,serif" font-size="14.00">SECRET_KEY : str</text>
<polyline fill="none" stroke="black" points="425,-279.5 627,-279.5 "/>
<text text-anchor="start" x="435.5" y="-264.3" font-family="Times,serif" font-size="14.00">get_database_name(): str</text>
<text text-anchor="start" x="435.5" y="-249.3" font-family="Times,serif" font-size="14.00">get_mongo_uri(): str</text>
<text text-anchor="start" x="435.5" y="-234.3" font-family="Times,serif" font-size="14.00">get_secret_key(): str</text>
</g>
<!-- config.Config&#45;&gt;app.BlogApplication -->
<g id="edge5" class="edge">
<title>config.Config&#45;&gt;app.BlogApplication</title>
<path fill="none" stroke="black" d="M490.94,-400.71C485.52,-414.02 479.95,-427.74 474.57,-440.96"/>
<polygon fill="none" stroke="black" points="474.42,-441.31 475.87,-448.38 469.9,-452.43 468.46,-445.37 474.42,-441.31"/>
<text text-anchor="middle" x="505.5" y="-422.8" font-family="Times,serif" font-size="14.00" fill="green">config</text>
</g>
<!-- repositories.database.DatabaseConnection -->
<g id="node6" class="node">
<title>repositories.database.DatabaseConnection</title>
<polygon fill="none" stroke="black" points="645.5,-256.5 645.5,-370.5 994.5,-370.5 994.5,-256.5 645.5,-256.5"/>
<text text-anchor="start" x="746" y="-355.3" font-family="Times,serif" font-size="14.00">DatabaseConnection</text>
<polyline fill="none" stroke="black" points="645.5,-347.5 994.5,-347.5 "/>
<text text-anchor="start" x="747.5" y="-332.3" font-family="Times,serif" font-size="14.00">database_name : str</text>
<text text-anchor="start" x="747.5" y="-317.3" font-family="Times,serif" font-size="14.00">mongo_uri : str</text>
<polyline fill="none" stroke="black" points="645.5,-309.5 994.5,-309.5 "/>
<text text-anchor="start" x="653.5" y="-294.3" font-family="Times,serif" font-size="14.00">close()</text>
<text text-anchor="start" x="653.5" y="-279.3" font-family="Times,serif" font-size="14.00">connect(): Database</text>
<text text-anchor="start" x="653.5" y="-264.3" font-family="Times,serif" font-size="14.00">get_collection(collection_name: str): Collection</text>
</g>
<!-- repositories.database.DatabaseConnection&#45;&gt;app.BlogApplication -->
<g id="edge4" class="edge">
<title>repositories.database.DatabaseConnection&#45;&gt;app.BlogApplication</title>
<path fill="none" stroke="black" d="M718.43,-370.51C669.2,-397.66 609.8,-430.42 558.61,-458.64"/>
<polygon fill="black" stroke="black" points="558.32,-458.8 555,-465.2 547.82,-464.6 551.14,-458.2 558.32,-458.8"/>
<text text-anchor="middle" x="681.5" y="-422.8" font-family="Times,serif" font-size="14.00" fill="green">db_connection</text>
</g>
<!-- config.TestConfig -->
<g id="node7" class="node">
<title>config.TestConfig</title>
<polygon fill="none" stroke="black" points="435,-53 435,-122 617,-122 617,-53 435,-53"/>
<text text-anchor="start" x="488" y="-106.8" font-family="Times,serif" font-size="14.00">TestConfig</text>
<polyline fill="none" stroke="black" points="435,-99 617,-99 "/>
<text text-anchor="start" x="443" y="-83.8" font-family="Times,serif" font-size="14.00">DATABASE_NAME : str</text>
<polyline fill="none" stroke="black" points="435,-76 617,-76 "/>
<text text-anchor="start" x="523.5" y="-60.8" font-family="Times,serif" font-size="14.00"> </text>
</g>
<!-- config.TestConfig&#45;&gt;config.Config -->
<g id="edge1" class="edge">
<title>config.TestConfig&#45;&gt;config.Config</title>
<path fill="none" stroke="black" d="M526,-122.04C526,-147.03 526,-182.51 526,-216.08"/>
<polygon fill="none" stroke="black" points="522.5,-216.42 526,-226.42 529.5,-216.42 522.5,-216.42"/>
</g>
</g>
</svg>
