<?xml version="1.0" encoding="UTF-8" standalone="no"?>
<!DOCTYPE svg PUBLIC "-//W3C//DTD SVG 1.1//EN"
 "http://www.w3.org/Graphics/SVG/1.1/DTD/svg11.dtd">
<!-- Generated by graphviz version 2.43.0 (0)
 -->
<!-- Title: packages_blog_app Pages: 1 -->
<svg width="693pt" height="260pt"
 viewBox="0.00 0.00 692.50 260.00" xmlns="http://www.w3.org/2000/svg" xmlns:xlink="http://www.w3.org/1999/xlink">
<g id="graph0" class="graph" transform="scale(1 1) rotate(0) translate(4 256)">
<title>packages_blog_app</title>
<polygon fill="white" stroke="transparent" points="-4,4 -4,-256 688.5,-256 688.5,4 -4,4"/>
<!-- app -->
<g id="node1" class="node">
<title>app</title>
<polygon fill="none" stroke="black" points="326,-36 272,-36 272,0 326,0 326,-36"/>
<text text-anchor="middle" x="299" y="-14.3" font-family="Times,serif" font-size="14.00">app</text>
</g>
<!-- config -->
<g id="node2" class="node">
<title>config</title>
<polygon fill="none" stroke="black" points="270.5,-108 211.5,-108 211.5,-72 270.5,-72 270.5,-108"/>
<text text-anchor="middle" x="241" y="-86.3" font-family="Times,serif" font-size="14.00">config</text>
</g>
<!-- app&#45;&gt;config -->
<g id="edge1" class="edge">
<title>app&#45;&gt;config</title>
<path fill="none" stroke="black" d="M284.66,-36.3C277.71,-44.7 269.23,-54.93 261.6,-64.14"/>
<polygon fill="black" stroke="black" points="255.17,-71.9 258.09,-61.32 258.36,-68.05 261.55,-64.2 261.55,-64.2 261.55,-64.2 258.36,-68.05 265.02,-67.07 255.17,-71.9 255.17,-71.9"/>
</g>
<!-- controllers.blog_controller -->
<g id="node4" class="node">
<title>controllers.blog_controller</title>
<polygon fill="none" stroke="black" points="533,-108 327,-108 327,-72 533,-72 533,-108"/>
<text text-anchor="middle" x="430" y="-86.3" font-family="Times,serif" font-size="14.00">controllers.blog_controller</text>
</g>
<!-- app&#45;&gt;controllers.blog_controller -->
<g id="edge2" class="edge">
<title>app&#45;&gt;controllers.blog_controller</title>
<path fill="none" stroke="black" d="M326.14,-33.5C344.21,-43.16 368.29,-56.02 388.71,-66.94"/>
<polygon fill="black" stroke="black" points="397.8,-71.8 386.86,-71.05 393.39,-69.44 388.98,-67.08 388.98,-67.08 388.98,-67.08 393.39,-69.44 391.11,-63.11 397.8,-71.8 397.8,-71.8"/>
</g>
<!-- monitoring.metrics -->
<g id="node8" class="node">
<title>monitoring.metrics</title>
<polygon fill="none" stroke="black" points="606,-252 452,-252 452,-216 606,-216 606,-252"/>
<text text-anchor="middle" x="529" y="-230.3" font-family="Times,serif" font-size="14.00">monitoring.metrics</text>
</g>
<!-- app&#45;&gt;monitoring.metrics -->
<g id="edge3" class="edge">
<title>app&#45;&gt;monitoring.metrics</title>
<path fill="none" stroke="black" d="M326.06,-25.21C340.31,-28.47 358.09,-32.49 374,-36 448.57,-52.44 493.99,-12.62 542,-72 572.81,-110.11 555.5,-171.21 541.41,-206.16"/>
<polygon fill="black" stroke="black" points="537.38,-215.69 537.12,-204.73 539.32,-211.09 541.27,-206.48 541.27,-206.48 541.27,-206.48 539.32,-211.09 545.42,-208.23 537.38,-215.69 537.38,-215.69"/>
</g>
<!-- repositories.blog_repository -->
<g id="node10" class="node">
<title>repositories.blog_repository</title>
<polygon fill="none" stroke="black" points="408,-180 190,-180 190,-144 408,-144 408,-180"/>
<text text-anchor="middle" x="299" y="-158.3" font-family="Times,serif" font-size="14.00">repositories.blog_repository</text>
</g>
<!-- app&#45;&gt;repositories.blog_repository -->
<g id="edge4" class="edge">
<title>app&#45;&gt;repositories.blog_repository</title>
<path fill="none" stroke="black" d="M299,-36.13C299,-60.33 299,-104.79 299,-133.61"/>
<polygon fill="black" stroke="black" points="299,-143.81 294.5,-133.81 299,-138.81 299,-133.81 299,-133.81 299,-133.81 299,-138.81 303.5,-133.81 299,-143.81 299,-143.81"/>
</g>
<!-- repositories.database -->
<g id="node11" class="node">
<title>repositories.database</title>
<polygon fill="none" stroke="black" points="193.5,-108 22.5,-108 22.5,-72 193.5,-72 193.5,-108"/>
<text text-anchor="middle" x="108" y="-86.3" font-family="Times,serif" font-size="14.00">repositories.database</text>
</g>
<!-- app&#45;&gt;repositories.database -->
<g id="edge5" class="edge">
<title>app&#45;&gt;repositories.database</title>
<path fill="none" stroke="black" d="M271.63,-29.03C243.73,-39.26 199.62,-55.42 164.23,-68.39"/>
<polygon fill="black" stroke="black" points="154.49,-71.96 162.34,-64.29 159.19,-70.24 163.88,-68.52 163.88,-68.52 163.88,-68.52 159.19,-70.24 165.43,-72.74 154.49,-71.96 154.49,-71.96"/>
</g>
<!-- controllers -->
<g id="node3" class="node">
<title>controllers</title>
<polygon fill="none" stroke="black" points="477,-36 383,-36 383,0 477,0 477,-36"/>
<text text-anchor="middle" x="430" y="-14.3" font-family="Times,serif" font-size="14.00">controllers</text>
</g>
<!-- controllers&#45;&gt;controllers.blog_controller -->
<g id="edge6" class="edge">
<title>controllers&#45;&gt;controllers.blog_controller</title>
<path fill="none" stroke="black" d="M430,-36.3C430,-44.02 430,-53.29 430,-61.89"/>
<polygon fill="black" stroke="black" points="430,-71.9 425.5,-61.9 430,-66.9 430,-61.9 430,-61.9 430,-61.9 430,-66.9 434.5,-61.9 430,-71.9 430,-71.9"/>
</g>
<!-- models.blog_post -->
<g id="node6" class="node">
<title>models.blog_post</title>
<polygon fill="none" stroke="black" points="369,-252 229,-252 229,-216 369,-216 369,-252"/>
<text text-anchor="middle" x="299" y="-230.3" font-family="Times,serif" font-size="14.00">models.blog_post</text>
</g>
<!-- controllers.blog_controller&#45;&gt;models.blog_post -->
<g id="edge7" class="edge">
<title>controllers.blog_controller&#45;&gt;models.blog_post</title>
<path fill="none" stroke="black" d="M432.08,-108.25C433.46,-127.66 432.72,-159.19 417,-180 406.59,-193.78 391.79,-204.07 376.17,-211.71"/>
<polygon fill="black" stroke="black" points="366.9,-215.91 374.15,-207.68 371.46,-213.85 376.01,-211.78 376.01,-211.78 376.01,-211.78 371.46,-213.85 377.87,-215.88 366.9,-215.91 366.9,-215.91"/>
</g>
<!-- controllers.blog_controller&#45;&gt;monitoring.metrics -->
<g id="edge8" class="edge">
<title>controllers.blog_controller&#45;&gt;monitoring.metrics</title>
<path fill="none" stroke="black" d="M441.94,-108.13C459.19,-132.86 491.18,-178.76 511.21,-207.49"/>
<polygon fill="black" stroke="black" points="517.02,-215.81 507.61,-210.18 514.16,-211.71 511.3,-207.61 511.3,-207.61 511.3,-207.61 514.16,-211.71 514.99,-205.03 517.02,-215.81 517.02,-215.81"/>
</g>
<!-- controllers.blog_controller&#45;&gt;repositories.blog_repository -->
<g id="edge9" class="edge">
<title>controllers.blog_controller&#45;&gt;repositories.blog_repository</title>
<path fill="none" stroke="black" d="M397.95,-108.12C380.51,-117.45 358.73,-129.08 340.06,-139.06"/>
<polygon fill="black" stroke="black" points="331.17,-143.81 337.87,-135.13 335.58,-141.45 339.99,-139.1 339.99,-139.1 339.99,-139.1 335.58,-141.45 342.11,-143.07 331.17,-143.81 331.17,-143.81"/>
</g>
<!-- models -->
<g id="node5" class="node">
<title>models</title>
<polygon fill="none" stroke="black" points="172,-180 104,-180 104,-144 172,-144 172,-180"/>
<text text-anchor="middle" x="138" y="-158.3" font-family="Times,serif" font-size="14.00">models</text>
</g>
<!-- models&#45;&gt;models.blog_post -->
<g id="edge10" class="edge">
<title>models&#45;&gt;models.blog_post</title>
<path fill="none" stroke="black" d="M172.14,-177.85C194.9,-187.74 225.15,-200.89 250.4,-211.87"/>
<polygon fill="black" stroke="black" points="259.81,-215.96 248.84,-216.1 255.22,-213.97 250.64,-211.97 250.64,-211.97 250.64,-211.97 255.22,-213.97 252.43,-207.85 259.81,-215.96 259.81,-215.96"/>
</g>
<!-- monitoring -->
<g id="node7" class="node">
<title>monitoring</title>
<polygon fill="none" stroke="black" points="684.5,-180 589.5,-180 589.5,-144 684.5,-144 684.5,-180"/>
<text text-anchor="middle" x="637" y="-158.3" font-family="Times,serif" font-size="14.00">monitoring</text>
</g>
<!-- monitoring&#45;&gt;monitoring.metrics -->
<g id="edge11" class="edge">
<title>monitoring&#45;&gt;monitoring.metrics</title>
<path fill="none" stroke="black" d="M610.58,-180.12C596.59,-189.19 579.22,-200.45 564.11,-210.24"/>
<polygon fill="black" stroke="black" points="555.52,-215.81 561.47,-206.6 559.72,-213.09 563.91,-210.37 563.91,-210.37 563.91,-210.37 559.72,-213.09 566.36,-214.15 555.52,-215.81 555.52,-215.81"/>
</g>
<!-- repositories -->
<g id="node9" class="node">
<title>repositories</title>
<polygon fill="none" stroke="black" points="102,-36 0,-36 0,0 102,0 102,-36"/>
<text text-anchor="middle" x="51" y="-14.3" font-family="Times,serif" font-size="14.00">repositories</text>
</g>
<!-- repositories&#45;&gt;repositories.blog_repository -->
<g id="edge12" class="edge">
<title>repositories&#45;&gt;repositories.blog_repository</title>
<path fill="none" stroke="black" d="M33.6,-36.32C16.44,-55.5 -4.83,-86.56 13,-108 18.65,-114.79 103.61,-130 179.48,-142.39"/>
<polygon fill="black" stroke="black" points="189.63,-144.04 179.04,-146.88 184.7,-143.24 179.76,-142.44 179.76,-142.44 179.76,-142.44 184.7,-143.24 180.48,-138 189.63,-144.04 189.63,-144.04"/>
</g>
<!-- repositories&#45;&gt;repositories.database -->
<g id="edge13" class="edge">
<title>repositories&#45;&gt;repositories.database</title>
<path fill="none" stroke="black" d="M65.09,-36.3C71.92,-44.7 80.26,-54.93 87.76,-64.14"/>
<polygon fill="black" stroke="black" points="94.07,-71.9 84.27,-66.98 90.92,-68.02 87.76,-64.14 87.76,-64.14 87.76,-64.14 90.92,-68.02 91.25,-61.3 94.07,-71.9 94.07,-71.9"/>
</g>
<!-- repositories.blog_repository&#45;&gt;models.blog_post -->
<g id="edge14" class="edge">
<title>repositories.blog_repository&#45;&gt;models.blog_post</title>
<path fill="none" stroke="black" d="M299,-180.3C299,-188.02 299,-197.29 299,-205.89"/>
<polygon fill="black" stroke="black" points="299,-215.9 294.5,-205.9 299,-210.9 299,-205.9 299,-205.9 299,-205.9 299,-210.9 303.5,-205.9 299,-215.9 299,-215.9"/>
</g>
<!-- repositories.blog_repository&#45;&gt;monitoring.metrics -->
<g id="edge15" class="edge">
<title>repositories.blog_repository&#45;&gt;monitoring.metrics</title>
<path fill="none" stroke="black" d="M354.97,-180.03C387.53,-189.94 428.74,-202.49 462.89,-212.88"/>
<polygon fill="black" stroke="black" points="472.78,-215.89 461.9,-217.28 468,-214.43 463.21,-212.98 463.21,-212.98 463.21,-212.98 468,-214.43 464.52,-208.67 472.78,-215.89 472.78,-215.89"/>
</g>
</g>
</svg>
