<?xml version="1.0" encoding="UTF-8" standalone="no"?>
<!DOCTYPE svg PUBLIC "-//W3C//DTD SVG 1.1//EN"
 "http://www.w3.org/Graphics/SVG/1.1/DTD/svg11.dtd">
<!-- Generated by graphviz version 14.0.5 (20251129.0259)
 -->
<!-- Title: classes_blog_app Pages: 1 -->
<svg width="814pt" height="650pt"
 viewBox="0.00 0.00 814.00 650.00" xmlns="http://www.w3.org/2000/svg" xmlns:xlink="http://www.w3.org/1999/xlink">
<g id="graph0" class="graph" transform="scale(1 1) rotate(0) translate(4 646)">
<title>classes_blog_app</title>
<polygon fill="white" stroke="none" points="-4,4 -4,-646 810.25,-646 810.25,4 -4,4"/>
<!-- app.BlogApplication -->
<g id="node1" class="node">
<title>app.BlogApplication</title>
<polygon fill="none" stroke="black" points="269.25,-485.5 269.25,-641.5 439,-641.5 439,-485.5 269.25,-485.5"/>
<text xml:space="preserve" text-anchor="start" x="309.12" y="-624.2" font-family="Times,serif" font-size="14.00">BlogApplication</text>
<polyline fill="none" stroke="black" points="269.25,-617 439,-617"/>
<text xml:space="preserve" text-anchor="start" x="277.25" y="-599.7" font-family="Times,serif" font-size="14.00">app : Flask</text>
<text xml:space="preserve" text-anchor="start" x="277.25" y="-583.2" font-family="Times,serif" font-size="14.00">blog_controller : NoneType</text>
<text xml:space="preserve" text-anchor="start" x="277.25" y="-566.7" font-family="Times,serif" font-size="14.00">blog_repository : NoneType</text>
<text xml:space="preserve" text-anchor="start" x="277.25" y="-550.2" font-family="Times,serif" font-size="14.00">config</text>
<text xml:space="preserve" text-anchor="start" x="277.25" y="-533.7" font-family="Times,serif" font-size="14.00">db_connection : NoneType</text>
<polyline fill="none" stroke="black" points="269.25,-526.5 439,-526.5"/>
<text xml:space="preserve" text-anchor="start" x="309.88" y="-509.2" font-family="Times,serif" font-size="14.00">close()</text>
<text xml:space="preserve" text-anchor="start" x="309.88" y="-492.7" font-family="Times,serif" font-size="14.00">get_app(): Flask</text>
</g>
<!-- controllers.blog_controller.BlogController -->
<g id="node2" class="node">
<title>controllers.blog_controller.BlogController</title>
<polygon fill="none" stroke="black" points="179.5,-276 179.5,-399 320.75,-399 320.75,-276 179.5,-276"/>
<text xml:space="preserve" text-anchor="start" x="209.25" y="-381.7" font-family="Times,serif" font-size="14.00">BlogController</text>
<polyline fill="none" stroke="black" points="179.5,-374.5 320.75,-374.5"/>
<text xml:space="preserve" text-anchor="start" x="194.62" y="-357.2" font-family="Times,serif" font-size="14.00">blueprint : Blueprint</text>
<text xml:space="preserve" text-anchor="start" x="194.62" y="-340.7" font-family="Times,serif" font-size="14.00">repository</text>
<polyline fill="none" stroke="black" points="179.5,-333.5 320.75,-333.5"/>
<text xml:space="preserve" text-anchor="start" x="187.5" y="-316.2" font-family="Times,serif" font-size="14.00">create_post()</text>
<text xml:space="preserve" text-anchor="start" x="187.5" y="-299.7" font-family="Times,serif" font-size="14.00">index()</text>
<text xml:space="preserve" text-anchor="start" x="187.5" y="-283.2" font-family="Times,serif" font-size="14.00">view_post(post_id: str)</text>
</g>
<!-- controllers.blog_controller.BlogController&#45;&gt;app.BlogApplication -->
<g id="edge2" class="edge">
<title>controllers.blog_controller.BlogController&#45;&gt;app.BlogApplication</title>
<path fill="none" stroke="black" d="M270.2,-399.23C278.03,-420.96 287.6,-445.4 297.88,-467 298.94,-469.25 300.05,-471.51 301.18,-473.79"/>
<polygon fill="black" stroke="black" points="301.16,-473.73 307.46,-477.23 306.66,-484.4 300.35,-480.9 301.16,-473.73"/>
<text xml:space="preserve" text-anchor="middle" x="339.5" y="-453.7" font-family="Times,serif" font-size="14.00" fill="green">blog_controller</text>
</g>
<!-- models.blog_post.BlogPost -->
<g id="node3" class="node">
<title>models.blog_post.BlogPost</title>
<polygon fill="none" stroke="black" points="522.25,-0.5 522.25,-189.5 740,-189.5 740,-0.5 522.25,-0.5"/>
<text xml:space="preserve" text-anchor="start" x="606.38" y="-172.2" font-family="Times,serif" font-size="14.00">BlogPost</text>
<polyline fill="none" stroke="black" points="522.25,-165 740,-165"/>
<text xml:space="preserve" text-anchor="start" x="572.25" y="-147.7" font-family="Times,serif" font-size="14.00">author : str</text>
<text xml:space="preserve" text-anchor="start" x="572.25" y="-131.2" font-family="Times,serif" font-size="14.00">content : str</text>
<text xml:space="preserve" text-anchor="start" x="572.25" y="-114.7" font-family="Times,serif" font-size="14.00">created_at : datetime</text>
<text xml:space="preserve" text-anchor="start" x="572.25" y="-98.2" font-family="Times,serif" font-size="14.00">id</text>
<text xml:space="preserve" text-anchor="start" x="572.25" y="-81.7" font-family="Times,serif" font-size="14.00">title : str</text>
<text xml:space="preserve" text-anchor="start" x="572.25" y="-65.2" font-family="Times,serif" font-size="14.00">updated_at : datetime</text>
<polyline fill="none" stroke="black" points="522.25,-58 740,-58"/>
<text xml:space="preserve" text-anchor="start" x="530.25" y="-40.7" font-family="Times,serif" font-size="14.00">from_dict(post_dict: dict): &#39;BlogPost&#39;</text>
<text xml:space="preserve" text-anchor="start" x="530.25" y="-24.2" font-family="Times,serif" font-size="14.00">to_dict(): dict</text>
<text xml:space="preserve" text-anchor="start" x="530.25" y="-7.7" font-family="Times,serif" font-size="14.00">validate(): Tuple[bool, Optional[str]]</text>
</g>
<!-- repositories.blog_repository.BlogRepository -->
<g id="node4" class="node">
<title>repositories.blog_repository.BlogRepository</title>
<polygon fill="none" stroke="black" points="0,-17 0,-173 270.25,-173 270.25,-17 0,-17"/>
<text xml:space="preserve" text-anchor="start" x="92.38" y="-155.7" font-family="Times,serif" font-size="14.00">BlogRepository</text>
<polyline fill="none" stroke="black" points="0,-148.5 270.25,-148.5"/>
<text xml:space="preserve" text-anchor="start" x="74.75" y="-131.2" font-family="Times,serif" font-size="14.00">collection : Collection</text>
<polyline fill="none" stroke="black" points="0,-124 270.25,-124"/>
<text xml:space="preserve" text-anchor="start" x="8" y="-106.7" font-family="Times,serif" font-size="14.00">count(): int</text>
<text xml:space="preserve" text-anchor="start" x="8" y="-90.2" font-family="Times,serif" font-size="14.00">create(blog_post: BlogPost): str</text>
<text xml:space="preserve" text-anchor="start" x="8" y="-73.7" font-family="Times,serif" font-size="14.00">delete(post_id: str): bool</text>
<text xml:space="preserve" text-anchor="start" x="8" y="-57.2" font-family="Times,serif" font-size="14.00">get_all(sort_by: str, order: int): List[BlogPost]</text>
<text xml:space="preserve" text-anchor="start" x="8" y="-40.7" font-family="Times,serif" font-size="14.00">get_by_id(post_id: str): Optional[BlogPost]</text>
<text xml:space="preserve" text-anchor="start" x="8" y="-24.2" font-family="Times,serif" font-size="14.00">update(post_id: str, blog_post: BlogPost): bool</text>
</g>
<!-- repositories.blog_repository.BlogRepository&#45;&gt;app.BlogApplication -->
<g id="edge3" class="edge">
<title>repositories.blog_repository.BlogRepository&#45;&gt;app.BlogApplication</title>
<path fill="none" stroke="black" d="M96.04,-173.16C65.38,-245.53 35.38,-354.08 84.62,-432.5 122.16,-492.28 195.78,-525.23 256.61,-542.98"/>
<polygon fill="black" stroke="black" points="256.55,-542.97 263.41,-540.73 268.11,-546.2 261.25,-548.43 256.55,-542.97"/>
<text xml:space="preserve" text-anchor="middle" x="127.38" y="-332.45" font-family="Times,serif" font-size="14.00" fill="green">blog_repository</text>
</g>
<!-- repositories.blog_repository.BlogRepository&#45;&gt;controllers.blog_controller.BlogController -->
<g id="edge6" class="edge">
<title>repositories.blog_repository.BlogRepository&#45;&gt;controllers.blog_controller.BlogController</title>
<path fill="none" stroke="black" d="M172.14,-173.42C186.05,-202.51 201.8,-235.44 215.48,-264.05"/>
<polygon fill="none" stroke="black" points="215.45,-263.98 221.64,-267.66 220.62,-274.8 214.43,-271.11 215.45,-263.98"/>
<text xml:space="preserve" text-anchor="middle" x="223.45" y="-211.2" font-family="Times,serif" font-size="14.00" fill="green">repository</text>
</g>
<!-- config.Config -->
<g id="node5" class="node">
<title>config.Config</title>
<polygon fill="none" stroke="black" points="338.75,-243 338.75,-432 511.5,-432 511.5,-243 338.75,-243"/>
<text xml:space="preserve" text-anchor="start" x="406.38" y="-414.7" font-family="Times,serif" font-size="14.00">Config</text>
<polyline fill="none" stroke="black" points="338.75,-407.5 511.5,-407.5"/>
<text xml:space="preserve" text-anchor="start" x="346.75" y="-390.2" font-family="Times,serif" font-size="14.00">COLLECTION_NAME : str</text>
<text xml:space="preserve" text-anchor="start" x="346.75" y="-373.7" font-family="Times,serif" font-size="14.00">DATABASE_NAME : str</text>
<text xml:space="preserve" text-anchor="start" x="346.75" y="-357.2" font-family="Times,serif" font-size="14.00">FLASK_DEBUG</text>
<text xml:space="preserve" text-anchor="start" x="346.75" y="-340.7" font-family="Times,serif" font-size="14.00">FLASK_ENV : str</text>
<text xml:space="preserve" text-anchor="start" x="346.75" y="-324.2" font-family="Times,serif" font-size="14.00">MONGO_URI : str</text>
<text xml:space="preserve" text-anchor="start" x="346.75" y="-307.7" font-family="Times,serif" font-size="14.00">SECRET_KEY : str</text>
<polyline fill="none" stroke="black" points="338.75,-300.5 511.5,-300.5"/>
<text xml:space="preserve" text-anchor="start" x="356.88" y="-283.2" font-family="Times,serif" font-size="14.00">get_database_name(): str</text>
<text xml:space="preserve" text-anchor="start" x="356.88" y="-266.7" font-family="Times,serif" font-size="14.00">get_mongo_uri(): str</text>
<text xml:space="preserve" text-anchor="start" x="356.88" y="-250.2" font-family="Times,serif" font-size="14.00">get_secret_key(): str</text>
</g>
<!-- config.Config&#45;&gt;app.BlogApplication -->
<g id="edge5" class="edge">
<title>config.Config&#45;&gt;app.BlogApplication</title>
<path fill="none" stroke="black" d="M395.43,-432.2C391.15,-445.69 386.76,-459.55 382.51,-472.96"/>
<polygon fill="none" stroke="black" points="382.55,-472.82 384.55,-479.75 378.92,-484.26 376.92,-477.34 382.55,-472.82"/>
<text xml:space="preserve" text-anchor="middle" x="406.88" y="-453.7" font-family="Times,serif" font-size="14.00" fill="green">config</text>
</g>
<!-- repositories.database.DatabaseConnection -->
<g id="node6" class="node">
<title>repositories.database.DatabaseConnection</title>
<polygon fill="none" stroke="black" points="530,-276 530,-399 806.25,-399 806.25,-276 530,-276"/>
<text xml:space="preserve" text-anchor="start" x="612.25" y="-381.7" font-family="Times,serif" font-size="14.00">DatabaseConnection</text>
<polyline fill="none" stroke="black" points="530,-374.5 806.25,-374.5"/>
<text xml:space="preserve" text-anchor="start" x="614.12" y="-357.2" font-family="Times,serif" font-size="14.00">database_name : str</text>
<text xml:space="preserve" text-anchor="start" x="614.12" y="-340.7" font-family="Times,serif" font-size="14.00">mongo_uri : str</text>
<polyline fill="none" stroke="black" points="530,-333.5 806.25,-333.5"/>
<text xml:space="preserve" text-anchor="start" x="538" y="-316.2" font-family="Times,serif" font-size="14.00">close()</text>
<text xml:space="preserve" text-anchor="start" x="538" y="-299.7" font-family="Times,serif" font-size="14.00">connect(): Database</text>
<text xml:space="preserve" text-anchor="start" x="538" y="-283.2" font-family="Times,serif" font-size="14.00">get_collection(collection_name: str): Collection</text>
</g>
<!-- repositories.database.DatabaseConnection&#45;&gt;app.BlogApplication -->
<g id="edge4" class="edge">
<title>repositories.database.DatabaseConnection&#45;&gt;app.BlogApplication</title>
<path fill="none" stroke="black" d="M582.74,-399.41C541.72,-428.67 492.4,-463.86 450.09,-494.04"/>
<polygon fill="black" stroke="black" points="450,-494.11 447.44,-500.85 440.23,-501.08 442.79,-494.33 450,-494.11"/>
<text xml:space="preserve" text-anchor="middle" x="550.88" y="-453.7" font-family="Times,serif" font-size="14.00" fill="green">db_connection</text>
</g>
<!-- config.TestConfig -->
<g id="node7" class="node">
<title>config.TestConfig</title>
<polygon fill="none" stroke="black" points="345.88,-58.25 345.88,-131.75 504.38,-131.75 504.38,-58.25 345.88,-58.25"/>
<text xml:space="preserve" text-anchor="start" x="394.75" y="-114.45" font-family="Times,serif" font-size="14.00">TestConfig</text>
<polyline fill="none" stroke="black" points="345.88,-107.25 504.38,-107.25"/>
<text xml:space="preserve" text-anchor="start" x="353.88" y="-89.95" font-family="Times,serif" font-size="14.00">DATABASE_NAME : str</text>
<polyline fill="none" stroke="black" points="345.88,-82.75 504.38,-82.75"/>
<text xml:space="preserve" text-anchor="start" x="423.25" y="-65.45" font-family="Times,serif" font-size="14.00"> </text>
</g>
<!-- config.TestConfig&#45;&gt;config.Config -->
<g id="edge1" class="edge">
<title>config.TestConfig&#45;&gt;config.Config</title>
<path fill="none" stroke="black" d="M425.12,-132.01C425.12,-158.37 425.12,-195.6 425.12,-231.08"/>
<polygon fill="none" stroke="black" points="421.63,-231.01 425.13,-241.01 428.63,-231.01 421.63,-231.01"/>
</g>
</g>
</svg>
